<svg xmlns="http://www.w3.org/2000/svg"><symbol id="icon-arrow" viewBox="0 0 31.49 31.49"><path d="M21.205 5.007a1.112 1.112 0 0 0-1.587 0 1.12 1.12 0 0 0 0 1.571l8.047 8.047H1.111A1.106 1.106 0 0 0 0 15.737c0 .619.492 1.127 1.111 1.127h26.554l-8.047 8.032c-.429.444-.429 1.159 0 1.587a1.112 1.112 0 0 0 1.587 0l9.952-9.952a1.093 1.093 0 0 0 0-1.571l-9.952-9.953z"/></symbol><symbol id="icon-email" viewBox="0 0 299.997 299.997"><path d="M149.996 0C67.157 0 .001 67.158.001 149.997c0 82.837 67.156 150 149.995 150s150-67.163 150-150C299.996 67.158 232.835 0 149.996 0zm.003 52.686l88.763 55.35H61.236l88.763-55.35zm89.869 143.737h-.009c0 8.878-7.195 16.072-16.072 16.072H76.211c-8.878 0-16.072-7.195-16.072-16.072v-84.865c0-.939.096-1.852.252-2.749l84.808 52.883c.104.065.215.109.322.169.112.062.226.122.34.179a8.903 8.903 0 0 0 1.847.721c.065.018.13.026.195.041a9.148 9.148 0 0 0 2.093.265h.015c.7 0 1.401-.099 2.093-.265.065-.016.13-.023.195-.041a8.99 8.99 0 0 0 1.847-.721 9.19 9.19 0 0 0 .34-.179c.106-.06.218-.104.322-.169l84.808-52.883c.156.897.252 1.808.252 2.749v84.865z"/></symbol><symbol id="icon-envelope" viewBox="0 0 483.3 483.3"><path d="M424.3 57.75H59.1c-32.6 0-59.1 26.5-59.1 59.1v249.6c0 32.6 26.5 59.1 59.1 59.1h365.1c32.6 0 59.1-26.5 59.1-59.1v-249.5c.1-32.6-26.4-59.2-59-59.2zm32.1 308.7c0 17.7-14.4 32.1-32.1 32.1H59.1c-17.7 0-32.1-14.4-32.1-32.1v-249.5c0-17.7 14.4-32.1 32.1-32.1h365.1c17.7 0 32.1 14.4 32.1 32.1v249.5h.1z"/><path d="M304.8 238.55l118.2-106c5.5-5 6-13.5 1-19.1-5-5.5-13.5-6-19.1-1l-163 146.3-31.8-28.4c-.1-.1-.2-.2-.2-.3-.7-.7-1.4-1.3-2.2-1.9L78.3 112.35c-5.6-5-14.1-4.5-19.1 1.1-5 5.6-4.5 14.1 1.1 19.1l119.6 106.9-119.1 111.5c-5.4 5.1-5.7 13.6-.6 19.1 2.7 2.8 6.3 4.3 9.9 4.3 3.3 0 6.6-1.2 9.2-3.6l120.9-113.1 32.8 29.3c2.6 2.3 5.8 3.4 9 3.4s6.5-1.2 9-3.5l33.7-30.2 120.2 114.2c2.6 2.5 6 3.7 9.3 3.7 3.6 0 7.1-1.4 9.8-4.2 5.1-5.4 4.9-14-.5-19.1l-118.7-112.7z"/></symbol><symbol id="icon-github" viewBox="0 0 438.549 438.549"><path d="M409.132 114.573c-19.608-33.596-46.205-60.194-79.798-79.8-33.598-19.607-70.277-29.408-110.063-29.408-39.781 0-76.472 9.804-110.063 29.408-33.596 19.605-60.192 46.204-79.8 79.8C9.803 148.168 0 184.854 0 224.63c0 47.78 13.94 90.745 41.827 128.906 27.884 38.164 63.906 64.572 108.063 79.227 5.14.954 8.945.283 11.419-1.996 2.475-2.282 3.711-5.14 3.711-8.562 0-.571-.049-5.708-.144-15.417a2549.81 2549.81 0 0 1-.144-25.406l-6.567 1.136c-4.187.767-9.469 1.092-15.846 1-6.374-.089-12.991-.757-19.842-1.999-6.854-1.231-13.229-4.086-19.13-8.559-5.898-4.473-10.085-10.328-12.56-17.556l-2.855-6.57c-1.903-4.374-4.899-9.233-8.992-14.559-4.093-5.331-8.232-8.945-12.419-10.848l-1.999-1.431c-1.332-.951-2.568-2.098-3.711-3.429-1.142-1.331-1.997-2.663-2.568-3.997-.572-1.335-.098-2.43 1.427-3.289 1.525-.859 4.281-1.276 8.28-1.276l5.708.853c3.807.763 8.516 3.042 14.133 6.851 5.614 3.806 10.229 8.754 13.846 14.842 4.38 7.806 9.657 13.754 15.846 17.847 6.184 4.093 12.419 6.136 18.699 6.136 6.28 0 11.704-.476 16.274-1.423 4.565-.952 8.848-2.383 12.847-4.285 1.713-12.758 6.377-22.559 13.988-29.41-10.848-1.14-20.601-2.857-29.264-5.14-8.658-2.286-17.605-5.996-26.835-11.14-9.235-5.137-16.896-11.516-22.985-19.126-6.09-7.614-11.088-17.61-14.987-29.979-3.901-12.374-5.852-26.648-5.852-42.826 0-23.035 7.52-42.637 22.557-58.817-7.044-17.318-6.379-36.732 1.997-58.24 5.52-1.715 13.706-.428 24.554 3.853 10.85 4.283 18.794 7.952 23.84 10.994 5.046 3.041 9.089 5.618 12.135 7.708 17.705-4.947 35.976-7.421 54.818-7.421s37.117 2.474 54.823 7.421l10.849-6.849c7.419-4.57 16.18-8.758 26.262-12.565 10.088-3.805 17.802-4.853 23.134-3.138 8.562 21.509 9.325 40.922 2.279 58.24 15.036 16.18 22.559 35.787 22.559 58.817 0 16.178-1.958 30.497-5.853 42.966-3.9 12.471-8.941 22.457-15.125 29.979-6.191 7.521-13.901 13.85-23.131 18.986-9.232 5.14-18.182 8.85-26.84 11.136-8.662 2.286-18.415 4.004-29.263 5.146 9.894 8.562 14.842 22.077 14.842 40.539v60.237c0 3.422 1.19 6.279 3.572 8.562 2.379 2.279 6.136 2.95 11.276 1.995 44.163-14.653 80.185-41.062 108.068-79.226 27.88-38.161 41.825-81.126 41.825-128.906-.01-39.771-9.818-76.454-29.414-110.049z"/></symbol><symbol id="icon-linkedin" viewBox="0 0 382 382"><path d="M347.445 0H34.555C15.471 0 0 15.471 0 34.555v312.889C0 366.529 15.471 382 34.555 382h312.889C366.529 382 382 366.529 382 347.444V34.555C382 15.471 366.529 0 347.445 0zM118.207 329.844c0 5.554-4.502 10.056-10.056 10.056H65.345c-5.554 0-10.056-4.502-10.056-10.056V150.403c0-5.554 4.502-10.056 10.056-10.056h42.806c5.554 0 10.056 4.502 10.056 10.056v179.441zM86.748 123.432c-22.459 0-40.666-18.207-40.666-40.666S64.289 42.1 86.748 42.1s40.666 18.207 40.666 40.666-18.206 40.666-40.666 40.666zM341.91 330.654a9.247 9.247 0 0 1-9.246 9.246H286.73a9.247 9.247 0 0 1-9.246-9.246v-84.168c0-12.556 3.683-55.021-32.813-55.021-28.309 0-34.051 29.066-35.204 42.11v97.079a9.246 9.246 0 0 1-9.246 9.246h-44.426a9.247 9.247 0 0 1-9.246-9.246V149.593a9.247 9.247 0 0 1 9.246-9.246h44.426a9.247 9.247 0 0 1 9.246 9.246v15.655c10.497-15.753 26.097-27.912 59.312-27.912 73.552 0 73.131 68.716 73.131 106.472v86.846z"/></symbol><symbol id="icon-phone" viewBox="0 0 485.213 485.212"><path d="M242.607 0C108.629 0 .001 108.628.001 242.606c0 133.976 108.628 242.606 242.606 242.606s242.604-108.631 242.604-242.606C485.212 108.628 376.585 0 242.607 0zm128.112 353.989l-19.425 19.429c-3.468 3.463-13.623 5.624-13.949 5.624-61.452.536-120.621-23.602-164.095-67.08-43.593-43.618-67.759-102.998-67.11-164.657 0-.028 2.224-9.892 5.689-13.324l19.424-19.427c7.108-7.141 20.762-10.368 30.327-7.168l4.086 1.363c9.537 3.197 19.55 13.742 22.185 23.457l9.771 35.862c2.635 9.743-.919 23.604-8.025 30.712l-12.97 12.972c12.734 47.142 49.723 84.138 96.873 96.903l12.965-12.975c7.141-7.141 20.997-10.692 30.719-8.061l35.857 9.806c9.717 2.67 20.26 12.62 23.456 22.154l1.363 4.145c3.168 9.538-.034 23.189-7.141 30.265z"/></symbol><symbol id="icon-tap" viewBox="0 0 512.001 512.001"><path d="M401.809 212.523c-12.295-1.17-24.556 2.892-33.639 11.15a43.964 43.964 0 0 0-3.188 3.217c-6.805-12.704-19.329-21.819-33.946-23.214-12.295-1.17-24.556 2.892-33.639 11.15a43.964 43.964 0 0 0-3.188 3.217c-5.941-11.089-16.24-19.443-28.485-22.315 21.223-21.098 33.958-50.2 33.958-81.275C299.681 51.344 248.337 0 185.227 0S70.774 51.344 70.774 114.454c0 46.302 28.254 88.244 70.773 105.817v49.155l-31.869 22.764c-18.882 13.488-26.638 37.341-19.3 59.353l31.431 94.297a96.64 96.64 0 0 0 91.796 66.162h130.862c53.354 0 96.76-43.406 96.76-96.76v-157.72c0-23.126-17.314-42.89-39.418-44.999zM87.361 114.454c0-53.963 43.903-97.866 97.866-97.866s97.866 43.903 97.866 97.866c0 37.248-21.382 71.191-54.186 87.594v-21.686c21.942-14.579 35.387-39.4 35.387-65.908 0-43.597-35.47-79.067-79.067-79.067-43.597 0-79.067 35.47-79.067 79.067 0 26.506 13.446 51.328 35.387 65.908v21.686c-32.802-16.403-54.186-50.347-54.186-87.594zm102.128-43.476c-12.296-1.172-24.556 2.89-33.638 11.149a43.783 43.783 0 0 0-14.304 32.327v44.644c-11.839-11.626-18.799-27.699-18.799-44.644 0-34.451 28.028-62.479 62.479-62.479s62.479 28.028 62.479 62.479c0 16.947-6.96 33.019-18.799 44.645v-43.123c.001-23.126-17.313-42.892-39.418-44.998zm154.978 424.435H213.604a80.07 80.07 0 0 1-76.059-54.819l-31.431-94.296c-5.022-15.061.285-31.381 13.205-40.609l22.228-15.878v72.352a8.294 8.294 0 0 0 8.294 8.294 8.294 8.294 0 0 0 8.294-8.294V114.454a27.157 27.157 0 0 1 8.874-20.053c5.716-5.197 13.146-7.652 20.906-6.91 13.686 1.304 24.406 13.816 24.406 28.484v175.413a8.294 8.294 0 0 0 8.294 8.294 8.294 8.294 0 0 0 8.294-8.294v-53.08a27.157 27.157 0 0 1 8.874-20.053c5.715-5.196 13.137-7.657 20.906-6.91 13.685 1.305 24.405 13.817 24.405 28.485v60.405c0 4.58 3.712 8.294 8.294 8.294s8.294-3.713 8.294-8.294v-53.08a27.157 27.157 0 0 1 8.874-20.053c5.715-5.196 13.137-7.657 20.906-6.91 13.685 1.305 24.405 13.817 24.405 28.485v60.403c0 4.58 3.712 8.294 8.294 8.294s8.294-3.713 8.294-8.294V256a27.154 27.154 0 0 1 8.874-20.053c5.715-5.196 13.137-7.657 20.906-6.91 13.685 1.305 24.405 13.817 24.405 28.485V415.24h.003c-.003 44.208-35.968 80.173-80.176 80.173z"/></symbol></svg>